<?xml version="1.0" encoding="UTF-8"?>
<!DOCTYPE svg PUBLIC "-//W3C//DTD SVG 1.1//EN" "http://www.w3.org/Graphics/SVG/1.1/DTD/svg11.dtd">
<!-- Creator: CorelDRAW -->
<svg xmlns="http://www.w3.org/2000/svg" xml:space="preserve" width="0.868189in" height="0.434146in" version="1.1" style="shape-rendering:geometricPrecision; text-rendering:geometricPrecision; image-rendering:optimizeQuality; fill-rule:evenodd; clip-rule:evenodd"
viewBox="0 0 102.31 51.16"
 xmlns:xlink="http://www.w3.org/1999/xlink"
 xmlns:xodm="http://www.corel.com/coreldraw/odm/2003">
 <defs>
  <style type="text/css">
   <![CDATA[
    .fil0 {fill:black}
   ]]>
  </style>
 </defs>
 <g id="Layer_x0020_1">
  <metadata id="CorelCorpID_0Corel-Layer"/>
  <g id="_2275970437488">
   <path class="fil0" d="M51.16 4.04c0.77,0 1.37,0.06 2.08,0.06 0.35,-0 0.69,0 1.04,0l7.04 0.46c4.63,0.4 9.98,1.37 14.47,2.67 3.17,0.92 4.89,1.55 7.94,2.8 1.56,0.64 4.17,1.98 5.6,2.94l1.28 0.85c0.44,0.31 0.85,0.6 1.26,0.93l0.87 0.69c1.84,1.63 3.43,3.47 4.51,5.71 1.52,3.16 1.19,6.42 -0.33,9.47 -0.13,0.26 -0.23,0.44 -0.37,0.67 -0.15,0.23 -0.27,0.45 -0.43,0.67 -0.15,0.21 -0.29,0.39 -0.44,0.6 -0.61,0.81 -1.29,1.54 -2.01,2.26 -0.1,0.1 -0.16,0.17 -0.26,0.26 -0.13,0.12 -0.19,0.14 -0.32,0.26 -1.31,1.22 -2.8,2.25 -4.33,3.17l-4.19 2.22c-1.25,0.58 -2.55,1.1 -3.86,1.57l-4.84 1.57c-5.18,1.51 -11.08,2.47 -16.47,2.88l-3 0.17c-1.36,0.04 -2.81,0.12 -4.21,0.12 -0.44,-0 -0.66,0.06 -1.04,0.06 -0.38,0 -0.56,-0.06 -0.98,-0.06l-3.18 -0.06c-2.05,0 -3.98,-0.24 -6,-0.41 -1.91,-0.16 -3.86,-0.44 -5.71,-0.75 -4.88,-0.82 -9.49,-1.95 -13.64,-3.51 -1.02,-0.38 -2.07,-0.75 -3.05,-1.22l-5.6 -2.94c-0.66,-0.4 -1.29,-0.87 -1.93,-1.31 -0.62,-0.43 -1.25,-0.92 -1.78,-1.45 -0.13,-0.13 -0.15,-0.13 -0.28,-0.24 -0.82,-0.66 -2.16,-2.25 -2.79,-3.16 -0.6,-0.86 -1.1,-1.82 -1.47,-2.8 -0.36,-0.97 -0.62,-2.06 -0.64,-3.11 -0.01,-0.28 -0.06,-0.27 -0.06,-0.52 0,-0.25 0.04,-0.2 0.06,-0.46l0.15 -1.47c0.48,-2.61 2.03,-4.96 3.88,-6.8 1.8,-1.8 3.86,-3.4 6.12,-4.62l1.38 -0.76c1.57,-0.94 4.29,-2.04 5.96,-2.64 1.03,-0.37 2.13,-0.75 3.19,-1.08 0.55,-0.18 1.09,-0.32 1.66,-0.48 0.53,-0.15 1.12,-0.3 1.69,-0.45 2.27,-0.6 4.67,-1.08 7.11,-1.49 1.23,-0.21 2.47,-0.39 3.74,-0.53 1.28,-0.15 2.64,-0.36 3.93,-0.4 1.35,-0.04 2.63,-0.24 4.04,-0.23 0.4,0 0.56,-0.06 0.98,-0.06l3.23 -0.06zm1.85 47.12l-0.08 0c-1.13,-0 -5.32,0.01 -6.01,-0.09 -0.37,-0.06 -0.76,0 -1.13,-0.03 -0.29,-0.02 -0.84,-0.06 -1.12,-0.1 -0.2,-0.03 -0.37,-0.01 -0.56,-0.01 -0.74,-0.02 -1.91,-0.2 -2.71,-0.23 -1.22,-0.05 -3,-0.34 -4.23,-0.51 -3.97,-0.56 -7.89,-1.37 -11.72,-2.49 -1.18,-0.34 -2.45,-0.73 -3.58,-1.15 -0.59,-0.22 -1.15,-0.39 -1.74,-0.63 -0.31,-0.12 -0.56,-0.22 -0.87,-0.35 -1.38,-0.55 -2.76,-1.14 -4.08,-1.81 -1.84,-0.92 -3.57,-1.91 -5.27,-3.05l-2.03 -1.5 -2.51 -2.23c-1.2,-1.2 -2.28,-2.49 -3.17,-3.94 -1.27,-2.07 -2.22,-4.59 -2.22,-7.71 0,-1.49 0.32,-2.9 0.7,-4.03 0.18,-0.55 0.43,-1.18 0.69,-1.68 0.13,-0.26 0.24,-0.49 0.38,-0.77 0.37,-0.74 0.87,-1.49 1.37,-2.15 0.32,-0.42 0.66,-0.91 1.03,-1.28l0.58 -0.63c0.21,-0.21 0.37,-0.37 0.58,-0.58 0.21,-0.21 0.37,-0.37 0.58,-0.58 0.11,-0.11 0.18,-0.18 0.29,-0.29 0.14,-0.13 0.18,-0.15 0.32,-0.26 0.86,-0.73 1.68,-1.47 2.63,-2.11 2.17,-1.44 3.31,-2.24 5.85,-3.5 3.24,-1.62 6.66,-2.93 10.15,-3.94 4.38,-1.27 9.04,-2.23 13.65,-2.8 0.67,-0.08 1.36,-0.14 2.07,-0.24 1.21,-0.16 2.58,-0.19 3.78,-0.32l9.17 -0.18c0.37,0 0.65,0.06 1.09,0.06 0.47,-0 0.75,0.06 1.15,0.06l1.1 0.06c2.76,0.07 5.87,0.49 8.55,0.86 2,0.28 4.01,0.63 5.96,1.09 0.64,0.15 1.29,0.27 1.92,0.45 0.64,0.18 1.28,0.3 1.89,0.48 0.6,0.18 1.22,0.35 1.8,0.51 1.5,0.42 2.98,0.91 4.42,1.47 2.34,0.92 4.3,1.78 6.52,2.89 0.77,0.38 1.91,1.01 2.62,1.48 0.12,0.08 0.23,0.16 0.35,0.23 1.57,0.94 2.98,2.09 4.39,3.23 0.75,0.61 1.46,1.33 2.11,2.04 0.54,0.58 1.15,1.28 1.59,1.94 0.31,0.47 0.63,0.91 0.91,1.4 2.85,4.8 2.84,10.04 -0.09,14.82l-0.96 1.41c-1.03,1.34 -2.19,2.53 -3.42,3.68l-4.05 3.05c-1.49,0.91 -2.97,1.78 -4.54,2.56 -0.27,0.14 -0.54,0.24 -0.83,0.38 -0.27,0.14 -0.5,0.26 -0.77,0.38 -5.93,2.54 -8.59,3.23 -14.39,4.6 -0.63,0.15 -1.36,0.26 -1.98,0.39 -1.35,0.27 -2.65,0.46 -4.07,0.67 -1.17,0.17 -3.06,0.45 -4.23,0.5l-4.39 0.35c-0.43,0.02 -0.8,-0.01 -1.17,0.04l-2.29 0.07z"/>
   <path class="fil0" d="M25.64 34.13l4.04 0 0 -9.58c0.15,0.11 2.06,3.12 2.28,3.44 0.14,0.21 0.23,0.34 0.36,0.56 0.12,0.2 0.31,0.41 0.37,0.62l2.94 0 2.9 -4.49c0.01,-0.01 0.02,-0.02 0.02,-0.03 0.08,-0.1 0.03,-0.04 0.08,-0.09l0 9.58 3.93 0c0.13,0 0.17,-0.04 0.17,-0.17l0 -16.92 -3.98 0c-0.16,0 -0.45,0.54 -0.61,0.77l-2.84 4.38c-0.21,0.32 -0.97,1.57 -1.17,1.72 -0.05,-0.21 -0.4,-0.65 -0.53,-0.85l-3.38 -5.22c-0.17,-0.26 -0.46,-0.8 -0.65,-0.8l-3.93 0 0 17.09z"/>
   <path class="fil0" d="M61.15 34.13l4.04 0 0 -10.1 7.13 9.84c0.08,0.11 0.15,0.26 0.32,0.26l3.93 0 0 -17.09 -4.04 0 0 10.1 -1.37 -1.86c-0.15,-0.22 -0.29,-0.42 -0.46,-0.64l-1.81 -2.52c-0.31,-0.42 -0.58,-0.81 -0.9,-1.24l-2.29 -3.19c-0.14,-0.2 -0.38,-0.44 -0.44,-0.66l-4.1 0 0 17.09z"/>
   <path class="fil0" d="M44.69 20.96c0,0.13 0.04,0.17 0.17,0.17l5.02 0 0 12.99 3.93 0c0.13,0 0.17,-0.04 0.17,-0.17l0 -12.82 5.02 0c0.13,0 0.17,-0.04 0.17,-0.17l0 -3.93 -14.49 0 0 3.93z"/>
  </g>
 </g>
</svg>
